<?xml version="1.0" standalone="no"?><!-- Generator: Gravit.io --><svg xmlns="http://www.w3.org/2000/svg" xmlns:xlink="http://www.w3.org/1999/xlink" style="isolation:isolate" viewBox="0 0 300 300" width="300" height="300"><defs><clipPath id="_clipPath_qdd2t7kOZHc4YqQOSbYqgB10yzYz0ju0"><rect width="300" height="300"/></clipPath></defs><g clip-path="url(#_clipPath_qdd2t7kOZHc4YqQOSbYqgB10yzYz0ju0)"><g><path d=" M 227.518 92.071 L 82.532 92.071 C 81.827 92.071 81.272 92.626 81.272 93.331 L 81.272 187.267 C 81.272 187.973 81.827 188.527 82.532 188.527 L 227.568 188.527 C 228.274 188.527 228.828 187.973 228.828 187.267 L 228.828 93.331 C 228.778 92.676 228.224 92.071 227.518 92.071 Z  M 226.258 186.007 L 83.792 186.007 L 83.792 94.591 L 226.258 94.591 L 226.258 186.007 Z  M 261.585 193.516 L 245.156 193.516 L 245.156 83.958 C 245.156 82.194 243.745 80.783 241.981 80.783 L 68.019 80.783 C 66.255 80.783 64.844 82.194 64.844 83.958 L 64.844 193.516 L 48.415 193.516 C 46.651 193.516 45.24 194.927 45.24 196.691 L 45.24 213.825 C 45.24 215.589 46.651 217 48.415 217 L 261.585 217 C 263.349 217 264.76 215.589 264.76 213.825 L 264.76 196.691 C 264.76 194.927 263.349 193.516 261.585 193.516 L 261.585 193.516 Z  M 71.143 87.133 L 238.857 87.133 L 238.857 193.566 L 71.143 193.566 L 71.143 87.133 Z  M 258.46 210.65 L 51.59 210.65 L 51.59 199.815 L 258.46 199.815 L 258.46 210.65 Z  M 228.576 202.738 L 225.099 202.738 C 224.646 202.738 224.343 203.091 224.343 203.494 L 224.343 206.971 C 224.343 207.425 224.696 207.727 225.099 207.727 L 228.576 207.727 C 229.03 207.727 229.332 207.375 229.332 206.971 L 229.332 203.494 C 229.332 203.091 228.979 202.738 228.576 202.738 Z  M 241.276 202.738 L 237.799 202.738 C 237.345 202.738 237.043 203.091 237.043 203.494 L 237.043 206.971 C 237.043 207.425 237.395 207.727 237.799 207.727 L 241.276 207.727 C 241.729 207.727 242.032 207.375 242.032 206.971 L 242.032 203.494 C 242.032 203.091 241.679 202.738 241.276 202.738 Z  M 215.978 202.738 L 175.964 202.738 C 175.511 202.738 175.208 203.091 175.208 203.494 L 175.208 206.971 C 175.208 207.425 175.561 207.727 175.964 207.727 L 215.978 207.727 C 216.431 207.727 216.734 207.375 216.734 206.971 L 216.734 203.494 C 216.734 203.091 216.381 202.738 215.978 202.738 L 215.978 202.738 Z " fill="rgb(60,53,51)"/><clipPath id="_clipPath_TVmBtVcsAPY1Y4JncpHZwA4XeaU40i3p"><rect x="82.849" y="92.071" width="140" height="98" transform="matrix(1,0,0,1,0,0)" fill="rgb(255,255,255)"/></clipPath><g clip-path="url(#_clipPath_TVmBtVcsAPY1Y4JncpHZwA4XeaU40i3p)"><g><rect x="89.383" y="99.538" width="125.067" height="7.467" transform="matrix(1,0,0,1,0,0)" fill="rgb(235,235,235)"/><rect x="91.249" y="110.738" width="71.556" height="37.644" transform="matrix(1,0,0,1,0,0)" fill="rgb(235,235,235)"/><rect x="167.472" y="141.849" width="46.978" height="7.156" transform="matrix(1,0,0,1,0,0)" fill="rgb(235,235,235)"/><rect x="167.472" y="110.738" width="46.978" height="7.156" transform="matrix(1,0,0,1,0,0)" fill="rgb(235,235,235)"/><rect x="167.472" y="132.205" width="46.978" height="7.156" transform="matrix(1,0,0,1,0,0)" fill="rgb(235,235,235)"/><rect x="167.472" y="122.249" width="46.978" height="7.156" transform="matrix(1,0,0,1,0,0)" fill="rgb(235,235,235)"/><circle vector-effect="non-scaling-stroke" cx="105.56044379132973" cy="168.6047320602095" r="14.311111111111103" fill="rgb(235,235,235)"/><path d=" M 127.027 158.338 L 127.027 180.894 L 147.872 180.894 L 127.027 158.338 Z " fill-rule="evenodd" fill="rgb(195,207,217)"/><path d=" M 149.11 179.343 L 149.122 156.787 L 128.277 156.778 L 149.11 179.343 Z " fill-rule="evenodd" fill="rgb(195,207,217)"/><path d=" M 107.655 131.894 L 102.339 129.099 L 97.024 131.894 L 98.039 125.974 L 93.738 121.783 L 99.681 120.919 L 102.339 115.534 L 104.997 120.919 L 110.94 121.783 L 106.64 125.974 L 107.655 131.894 Z " fill="rgb(93,93,93)"/><g><rect x="167.005" y="156.316" width="0.933" height="24.578" transform="matrix(1,0,0,1,0,0)" fill="rgb(235,235,235)"/><rect x="167.938" y="179.183" width="41.533" height="1.867" transform="matrix(1,0,0,1,0,0)" fill="rgb(235,235,235)"/><rect x="169.649" y="160.516" width="4.044" height="18.667" transform="matrix(1,0,0,1,0,0)" fill="rgb(13,221,68)"/><rect x="184.272" y="161.449" width="4.667" height="17.733" transform="matrix(1,0,0,1,0,0)" fill="rgb(50,187,150)"/><rect x="190.96" y="155.383" width="2.956" height="23.8" transform="matrix(1,0,0,1,0,0)" fill="rgb(166,15,128)"/><rect x="196.094" y="167.983" width="2.178" height="11.511" transform="matrix(1,0,0,1,0,0)" fill="rgb(196,215,54)"/><rect x="201.383" y="161.449" width="3.422" height="17.733" transform="matrix(1,0,0,1,0,0)" fill="rgb(234,80,80)"/></g><rect x="176.805" y="163.938" width="2.8" height="14.933" transform="matrix(1,0,0,1,0,0)" fill="rgb(195,174,174)"/></g></g></g></g></svg>