<svg xmlns="http://www.w3.org/2000/svg" width="1440" height="1500"><path d="M918,808L719,900L875,949Z" fill="#e5469b" stroke="#e5469b" stroke-width="1.51"/><path d="M918,808L721,787L719,900Z" fill="#ed559d" stroke="#ed559d" stroke-width="1.51"/><path d="M729,537L557,726L721,787Z" fill="#f97ba8" stroke="#f97ba8" stroke-width="1.51"/><path d="M875,949L1100,788L918,808Z" fill="#da3c95" stroke="#da3c95" stroke-width="1.51"/><path d="M721,787L557,726L719,900Z" fill="#f46ba3" stroke="#f46ba3" stroke-width="1.51"/><path d="M729,537L721,787L918,808Z" fill="#f366a1" stroke="#f366a1" stroke-width="1.51"/><path d="M971,514L729,537L918,808Z" fill="#ee6aa4" stroke="#ee6aa4" stroke-width="1.51"/><path d="M719,900L772,1189L875,949Z" fill="#db3f95" stroke="#db3f95" stroke-width="1.51"/><path d="M875,949L1160,999L1100,788Z" fill="#cc298d" stroke="#cc298d" stroke-width="1.51"/><path d="M534,1123L772,1189L719,900Z" fill="#da4e96" stroke="#da4e96" stroke-width="1.51"/><path d="M772,1189L912,1180L875,949Z" fill="#cb2c8d" stroke="#cb2c8d" stroke-width="1.51"/><path d="M557,726L505,992L719,900Z" fill="#f06fa5" stroke="#f06fa5" stroke-width="1.51"/><path d="M912,1180L1160,999L875,949Z" fill="#c4208a" stroke="#c4208a" stroke-width="1.51"/><path d="M1103,555L971,514L918,808Z" fill="#df5e9c" stroke="#df5e9c" stroke-width="1.51"/><path d="M729,537L527,599L557,726Z" fill="#fa8eaf" stroke="#fa8eaf" stroke-width="1.51"/><path d="M359,700L376,1000L505,992Z" fill="#f183ab" stroke="#f183ab" stroke-width="1.51"/><path d="M505,992L534,1123L719,900Z" fill="#e4639f" stroke="#e4639f" stroke-width="1.51"/><path d="M1100,788L1103,555L918,808Z" fill="#d84a94" stroke="#d84a94" stroke-width="1.51"/><path d="M1276,696L1103,555L1100,788Z" fill="#c84a92" stroke="#c84a92" stroke-width="1.51"/><path d="M912,1180L1156,1155L1160,999Z" fill="#b0057f" stroke="#b0057f" stroke-width="1.51"/><path d="M1160,999L1256,978L1100,788Z" fill="#b92189" stroke="#b92189" stroke-width="1.51"/><path d="M1156,1155L1256,978L1160,999Z" fill="#a81082" stroke="#a81082" stroke-width="1.51"/><path d="M505,992L382,1113L534,1123Z" fill="#dc6c9e" stroke="#dc6c9e" stroke-width="1.51"/><path d="M359,700L505,992L557,726Z" fill="#f686ab" stroke="#f686ab" stroke-width="1.51"/><path d="M729,537L522,362L527,599Z" fill="#fb9eb4" stroke="#fb9eb4" stroke-width="1.51"/><path d="M971,514L780,387L729,537Z" fill="#f382ab" stroke="#f382ab" stroke-width="1.51"/><path d="M950,359L780,387L971,514Z" fill="#ef80aa" stroke="#ef80aa" stroke-width="1.51"/><path d="M1256,978L1276,696L1100,788Z" fill="#ba328b" stroke="#ba328b" stroke-width="1.51"/><path d="M527,599L359,700L557,726Z" fill="#fa96b1" stroke="#fa96b1" stroke-width="1.51"/><path d="M304,504L359,700L527,599Z" fill="#fba9b8" stroke="#fba9b8" stroke-width="1.51"/><path d="M912,1180L1058,1357L1156,1155Z" fill="#a4087f" stroke="#a4087f" stroke-width="1.51"/><path d="M772,1189L885,1338L912,1180Z" fill="#b92789" stroke="#b92789" stroke-width="1.51"/><path d="M775,1397L885,1338L772,1189Z" fill="#b22d8a" stroke="#b22d8a" stroke-width="1.51"/><path d="M534,1123L556,1319L772,1189Z" fill="#c75094" stroke="#c75094" stroke-width="1.51"/><path d="M376,1000L382,1113L505,992Z" fill="#e276a3" stroke="#e276a3" stroke-width="1.51"/><path d="M124,1170L382,1113L376,1000Z" fill="#dc7da6" stroke="#dc7da6" stroke-width="1.51"/><path d="M1097,373L950,359L971,514Z" fill="#e177a3" stroke="#e177a3" stroke-width="1.51"/><path d="M1097,373L971,514L1103,555Z" fill="#d96c9d" stroke="#d96c9d" stroke-width="1.51"/><path d="M382,1113L556,1319L534,1123Z" fill="#cd649a" stroke="#cd649a" stroke-width="1.51"/><path d="M556,1319L775,1397L772,1189Z" fill="#ba3e8d" stroke="#ba3e8d" stroke-width="1.51"/><path d="M885,1338L1058,1357L912,1180Z" fill="#a71684" stroke="#a71684" stroke-width="1.51"/><path d="M1156,1155L1316,1186L1256,978Z" fill="#99047c" stroke="#99047c" stroke-width="1.51"/><path d="M913,1494L1058,1357L885,1338Z" fill="#9a1481" stroke="#9a1481" stroke-width="1.51"/><path d="M1355,572L1097,373L1103,555Z" fill="#c6639a" stroke="#c6639a" stroke-width="1.51"/><path d="M780,387L522,362L729,537Z" fill="#fb99b1" stroke="#fb99b1" stroke-width="1.51"/><path d="M744,116L522,362L780,387Z" fill="#fca5b9" stroke="#fca5b9" stroke-width="1.51"/><path d="M1262,1414L1316,1186L1156,1155Z" fill="#850179" stroke="#850179" stroke-width="1.51"/><path d="M1534,805L1355,572L1276,696Z" fill="#a7418b" stroke="#a7418b" stroke-width="1.51"/><path d="M1472,975L1276,696L1256,978Z" fill="#a52486" stroke="#a52486" stroke-width="1.51"/><path d="M1276,696L1355,572L1103,555Z" fill="#bc5394" stroke="#bc5394" stroke-width="1.51"/><path d="M522,362L304,504L527,599Z" fill="#fbb0ba" stroke="#fbb0ba" stroke-width="1.51"/><path d="M359,700L139,765L376,1000Z" fill="#f797b4" stroke="#f797b4" stroke-width="1.51"/><path d="M1058,1357L1262,1414L1156,1155Z" fill="#890079" stroke="#890079" stroke-width="1.51"/><path d="M775,1397L913,1494L885,1338Z" fill="#a22285" stroke="#a22285" stroke-width="1.51"/><path d="M783,1554L913,1494L775,1397Z" fill="#9b2683" stroke="#9b2683" stroke-width="1.51"/><path d="M1316,1186L1472,975L1256,978Z" fill="#920b7d" stroke="#920b7d" stroke-width="1.51"/><path d="M304,504L139,765L359,700Z" fill="#fcadbd" stroke="#fcadbd" stroke-width="1.51"/><path d="M541,1566L783,1554L775,1397Z" fill="#a03887" stroke="#a03887" stroke-width="1.51"/><path d="M382,1113L332,1354L556,1319Z" fill="#c3699b" stroke="#c3699b" stroke-width="1.51"/><path d="M124,1170L332,1354L382,1113Z" fill="#cc78a4" stroke="#cc78a4" stroke-width="1.51"/><path d="M541,1566L775,1397L556,1319Z" fill="#aa488e" stroke="#aa488e" stroke-width="1.51"/><path d="M304,504L116,491L139,765Z" fill="#fdbcc7" stroke="#fdbcc7" stroke-width="1.51"/><path d="M522,362L275,394L304,504Z" fill="#fcc0be" stroke="#fcc0be" stroke-width="1.51"/><path d="M1316,1186L1575,1207L1472,975Z" fill="#7d0074" stroke="#7d0074" stroke-width="1.51"/><path d="M1134,1569L1262,1414L1058,1357Z" fill="#790075" stroke="#790075" stroke-width="1.51"/><path d="M1134,1569L1058,1357L913,1494Z" fill="#860578" stroke="#860578" stroke-width="1.51"/><path d="M1355,572L1267,298L1097,373Z" fill="#bf6a9b" stroke="#bf6a9b" stroke-width="1.51"/><path d="M916,94L744,116L950,359Z" fill="#f396bb" stroke="#f396bb" stroke-width="1.51"/><path d="M950,359L744,116L780,387Z" fill="#f594b4" stroke="#f594b4" stroke-width="1.51"/><path d="M1472,975L1534,805L1276,696Z" fill="#9d2a84" stroke="#9d2a84" stroke-width="1.51"/><path d="M1355,572L1538,368L1267,298Z" fill="#aa6496" stroke="#aa6496" stroke-width="1.51"/><path d="M916,94L950,359L1098,138Z" fill="#e58bb3" stroke="#e58bb3" stroke-width="1.51"/><path d="M522,362L379,187L275,394Z" fill="#fdc6c3" stroke="#fdc6c3" stroke-width="1.51"/><path d="M139,765L61,914L376,1000Z" fill="#f497ba" stroke="#f497ba" stroke-width="1.51"/><path d="M-101,978L61,914L-102,719Z" fill="#f8a6c6" stroke="#f8a6c6" stroke-width="1.51"/><path d="M61,914L124,1170L376,1000Z" fill="#e58bb3" stroke="#e58bb3" stroke-width="1.51"/><path d="M340,1487L556,1319L332,1354Z" fill="#b26598" stroke="#b26598" stroke-width="1.51"/><path d="M340,1487L541,1566L556,1319Z" fill="#a85a93" stroke="#a85a93" stroke-width="1.51"/><path d="M1098,138L950,359L1097,373Z" fill="#dc7ea7" stroke="#dc7ea7" stroke-width="1.51"/><path d="M1267,298L1098,138L1097,373Z" fill="#cd7aa5" stroke="#cd7aa5" stroke-width="1.51"/><path d="M1534,805L1510,514L1355,572Z" fill="#a1488c" stroke="#a1488c" stroke-width="1.51"/><path d="M1267,298L1360,212L1098,138Z" fill="#c07aa8" stroke="#c07aa8" stroke-width="1.51"/><path d="M944,1787L913,1494L783,1554Z" fill="#951b81" stroke="#951b81" stroke-width="1.51"/><path d="M944,1787L1134,1569L913,1494Z" fill="#870a7a" stroke="#870a7a" stroke-width="1.51"/><path d="M744,116L471,150L522,362Z" fill="#fdb9c5" stroke="#fdb9c5" stroke-width="1.51"/><path d="M671,-1L471,150L744,116Z" fill="#febaca" stroke="#febaca" stroke-width="1.51"/><path d="M275,394L116,491L304,504Z" fill="#fcc6c8" stroke="#fcc6c8" stroke-width="1.51"/><path d="M121,389L116,491L275,394Z" fill="#fdcecd" stroke="#fdcecd" stroke-width="1.51"/><path d="M108,1400L340,1487L332,1354Z" fill="#af70a0" stroke="#af70a0" stroke-width="1.51"/><path d="M471,150L379,187L522,362Z" fill="#fcc5c8" stroke="#fcc5c8" stroke-width="1.51"/><path d="M1262,1414L1500,1324L1316,1186Z" fill="#6d0074" stroke="#6d0074" stroke-width="1.51"/><path d="M1472,975L1747,1008L1534,805Z" fill="#941981" stroke="#941981" stroke-width="1.51"/><path d="M1463,1494L1500,1324L1262,1414Z" fill="#5a006e" stroke="#5a006e" stroke-width="1.51"/><path d="M1500,1324L1575,1207L1316,1186Z" fill="#6d0072" stroke="#6d0072" stroke-width="1.51"/><path d="M1666,574L1538,368L1510,514Z" fill="#a25a92" stroke="#a25a92" stroke-width="1.51"/><path d="M183,124L121,389L275,394Z" fill="#fdd7d3" stroke="#fdd7d3" stroke-width="1.51"/><path d="M-102,719L61,914L139,765Z" fill="#fcacc6" stroke="#fcacc6" stroke-width="1.51"/><path d="M1538,368L1360,212L1267,298Z" fill="#ab6d9e" stroke="#ab6d9e" stroke-width="1.51"/><path d="M1134,1569L1291,1565L1262,1414Z" fill="#670071" stroke="#670071" stroke-width="1.51"/><path d="M916,94L913,6L744,116Z" fill="#f59fc1" stroke="#f59fc1" stroke-width="1.51"/><path d="M1070,-19L913,6L916,94Z" fill="#ea98be" stroke="#ea98be" stroke-width="1.51"/><path d="M1070,-19L916,94L1098,138Z" fill="#e18fb7" stroke="#e18fb7" stroke-width="1.51"/><path d="M1666,574L1510,514L1534,805Z" fill="#a1488c" stroke="#a1488c" stroke-width="1.51"/><path d="M1510,514L1538,368L1355,572Z" fill="#a25a92" stroke="#a25a92" stroke-width="1.51"/><path d="M278,-22L183,124L379,187Z" fill="#fededa" stroke="#fededa" stroke-width="1.51"/><path d="M913,6L671,-1L744,116Z" fill="#fcaac5" stroke="#fcaac5" stroke-width="1.51"/><path d="M541,1566L553,1690L783,1554Z" fill="#a1448b" stroke="#a1448b" stroke-width="1.51"/><path d="M1134,1569L1168,1759L1291,1565Z" fill="#6b0072" stroke="#6b0072" stroke-width="1.51"/><path d="M340,1487L553,1690L541,1566Z" fill="#a25892" stroke="#a25892" stroke-width="1.51"/><path d="M1733,721L1666,574L1534,805Z" fill="#a03d88" stroke="#a03d88" stroke-width="1.51"/><path d="M340,1487L305,1803L553,1690Z" fill="#a36194" stroke="#a36194" stroke-width="1.51"/><path d="M124,1170L108,1400L332,1354Z" fill="#be7ba9" stroke="#be7ba9" stroke-width="1.51"/><path d="M-21,1370L108,1400L124,1170Z" fill="#be82b0" stroke="#be82b0" stroke-width="1.51"/><path d="M1291,1565L1463,1494L1262,1414Z" fill="#58006e" stroke="#58006e" stroke-width="1.51"/><path d="M1500,1324L1772,1363L1575,1207Z" fill="#640071" stroke="#640071" stroke-width="1.51"/><path d="M553,1690L715,1757L783,1554Z" fill="#a03b88" stroke="#a03b88" stroke-width="1.51"/><path d="M555,-216L542,-91L671,-1Z" fill="#ffc5d0" stroke="#ffc5d0" stroke-width="1.51"/><path d="M1294,-98L1070,-19L1098,138Z" fill="#d08bb5" stroke="#d08bb5" stroke-width="1.51"/><path d="M1575,1207L1709,1096L1472,975Z" fill="#800276" stroke="#800276" stroke-width="1.51"/><path d="M1772,1363L1709,1096L1575,1207Z" fill="#6f0072" stroke="#6f0072" stroke-width="1.51"/><path d="M1747,1008L1733,721L1534,805Z" fill="#992783" stroke="#992783" stroke-width="1.51"/><path d="M61,914L-89,1152L124,1170Z" fill="#e191b8" stroke="#e191b8" stroke-width="1.51"/><path d="M-102,719L139,765L-115,598Z" fill="#ffbacc" stroke="#ffbacc" stroke-width="1.51"/><path d="M-115,598L139,765L116,491Z" fill="#ffc1ce" stroke="#ffc1ce" stroke-width="1.51"/><path d="M715,1757L944,1787L783,1554Z" fill="#992783" stroke="#992783" stroke-width="1.51"/><path d="M1291,1565L1491,1794L1463,1494Z" fill="#4d006b" stroke="#4d006b" stroke-width="1.51"/><path d="M1709,1096L1747,1008L1472,975Z" fill="#890c7b" stroke="#890c7b" stroke-width="1.51"/><path d="M-101,978L-89,1152L61,914Z" fill="#ea98bf" stroke="#ea98bf" stroke-width="1.51"/><path d="M-243,798L-223,958L-101,978Z" fill="#f6a2c5" stroke="#f6a2c5" stroke-width="1.51"/><path d="M-133,322L-115,598L116,491Z" fill="#fed5d6" stroke="#fed5d6" stroke-width="1.51"/><path d="M121,389L-133,322L116,491Z" fill="#fedad7" stroke="#fedad7" stroke-width="1.51"/><path d="M379,187L183,124L275,394Z" fill="#fdd5d1" stroke="#fdd5d1" stroke-width="1.51"/><path d="M278,-22L379,187L471,150Z" fill="#fed6d3" stroke="#fed6d3" stroke-width="1.51"/><path d="M944,1787L1168,1759L1134,1569Z" fill="#7c0074" stroke="#7c0074" stroke-width="1.51"/><path d="M108,1400L84,1592L340,1487Z" fill="#a472a3" stroke="#a472a3" stroke-width="1.51"/><path d="M-89,1152L-21,1370L124,1170Z" fill="#cc8ab5" stroke="#cc8ab5" stroke-width="1.51"/><path d="M671,-1L542,-91L471,150Z" fill="#ffc8d2" stroke="#ffc8d2" stroke-width="1.51"/><path d="M555,-216L671,-1L667,-301Z" fill="#ffbfce" stroke="#ffbfce" stroke-width="1.51"/><path d="M1360,212L1294,-98L1098,138Z" fill="#c082af" stroke="#c082af" stroke-width="1.51"/><path d="M1538,368L1583,195L1360,212Z" fill="#a36d9e" stroke="#a36d9e" stroke-width="1.51"/><path d="M1726,329L1583,195L1538,368Z" fill="#a36a9b" stroke="#a36a9b" stroke-width="1.51"/><path d="M1726,329L1538,368L1666,574Z" fill="#a36094" stroke="#a36094" stroke-width="1.51"/><path d="M542,-91L278,-22L471,150Z" fill="#ffd6d7" stroke="#ffd6d7" stroke-width="1.51"/><path d="M-21,1370L84,1592L108,1400Z" fill="#ab7cac" stroke="#ab7cac" stroke-width="1.51"/><path d="M553,1690L678,1895L715,1757Z" fill="#a1418a" stroke="#a1418a" stroke-width="1.51"/><path d="M-89,1152L-313,1346L-21,1370Z" fill="#c387b4" stroke="#c387b4" stroke-width="1.51"/><path d="M-21,1370L-105,1552L84,1592Z" fill="#a57dad" stroke="#a57dad" stroke-width="1.51"/><path d="M-101,978L-223,958L-89,1152Z" fill="#e897be" stroke="#e897be" stroke-width="1.51"/><path d="M-243,798L-101,978L-102,719Z" fill="#fbaac7" stroke="#fbaac7" stroke-width="1.51"/><path d="M1925,607L1666,574L1733,721Z" fill="#a1478c" stroke="#a1478c" stroke-width="1.51"/><path d="M1925,607L1726,329L1666,574Z" fill="#a25891" stroke="#a25891" stroke-width="1.51"/><path d="M715,1757L918,1930L944,1787Z" fill="#961f82" stroke="#961f82" stroke-width="1.51"/><path d="M1153,1902L1309,1793L1168,1759Z" fill="#6a0072" stroke="#6a0072" stroke-width="1.51"/><path d="M552,1939L678,1895L553,1690Z" fill="#a1498d" stroke="#a1498d" stroke-width="1.51"/><path d="M1865,1147L1747,1008L1709,1096Z" fill="#810477" stroke="#810477" stroke-width="1.51"/><path d="M1168,1759L1309,1793L1291,1565Z" fill="#620071" stroke="#620071" stroke-width="1.51"/><path d="M1153,1902L1168,1759L944,1787Z" fill="#7c0074" stroke="#7c0074" stroke-width="1.51"/><path d="M-115,598L-243,798L-102,719Z" fill="#ffb9cc" stroke="#ffb9cc" stroke-width="1.51"/><path d="M-323,534L-243,798L-115,598Z" fill="#ffc1cf" stroke="#ffc1cf" stroke-width="1.51"/><path d="M1070,-19L1130,-197L913,6Z" fill="#e193ba" stroke="#e193ba" stroke-width="1.51"/><path d="M1526,-81L1294,-98L1360,212Z" fill="#ac7fae" stroke="#ac7fae" stroke-width="1.51"/><path d="M1526,-81L1360,212L1583,195Z" fill="#a477a7" stroke="#a477a7" stroke-width="1.51"/><path d="M1747,1008L1893,897L1733,721Z" fill="#972282" stroke="#972282" stroke-width="1.51"/><path d="M1865,1147L1893,897L1747,1008Z" fill="#8a0d7b" stroke="#8a0d7b" stroke-width="1.51"/><path d="M1772,1363L1500,1324L1721,1494Z" fill="#57006e" stroke="#57006e" stroke-width="1.51"/><path d="M155,1716L305,1803L340,1487Z" fill="#a36c9d" stroke="#a36c9d" stroke-width="1.51"/><path d="M678,1895L918,1930L715,1757Z" fill="#9c2d84" stroke="#9c2d84" stroke-width="1.51"/><path d="M1721,1494L1500,1324L1463,1494Z" fill="#52006c" stroke="#52006c" stroke-width="1.51"/><path d="M1772,1363L1865,1147L1709,1096Z" fill="#720073" stroke="#720073" stroke-width="1.51"/><path d="M84,1592L155,1716L340,1487Z" fill="#a371a2" stroke="#a371a2" stroke-width="1.51"/><path d="M-44,162L-133,322L121,389Z" fill="#ffe4e0" stroke="#ffe4e0" stroke-width="1.51"/><path d="M-44,162L121,389L183,124Z" fill="#fee3df" stroke="#fee3df" stroke-width="1.51"/><path d="M1294,-98L1130,-197L1070,-19Z" fill="#cf8bb6" stroke="#cf8bb6" stroke-width="1.51"/><path d="M918,1930L1153,1902L944,1787Z" fill="#860979" stroke="#860979" stroke-width="1.51"/><path d="M542,-91L323,-240L278,-22Z" fill="#ffdcd9" stroke="#ffdcd9" stroke-width="1.51"/><path d="M869,-298L671,-1L913,6Z" fill="#f9a8c7" stroke="#f9a8c7" stroke-width="1.51"/><path d="M1772,1363L1953,1297L1865,1147Z" fill="#680072" stroke="#680072" stroke-width="1.51"/><path d="M1762,1717L1721,1494L1463,1494Z" fill="#49006a" stroke="#49006a" stroke-width="1.51"/><path d="M123,-10L-44,162L183,124Z" fill="#feece8" stroke="#feece8" stroke-width="1.51"/><path d="M123,-10L183,124L278,-22Z" fill="#fee8e5" stroke="#fee8e5" stroke-width="1.51"/><path d="M323,-240L123,-10L278,-22Z" fill="#fee7e3" stroke="#fee7e3" stroke-width="1.51"/><path d="M678,1895L552,1939L918,1930Z" fill="#a03586" stroke="#a03586" stroke-width="1.51"/><path d="M305,1803L552,1939L553,1690Z" fill="#a25992" stroke="#a25992" stroke-width="1.51"/><path d="M1969,757L1925,607L1733,721Z" fill="#a03e89" stroke="#a03e89" stroke-width="1.51"/><path d="M-223,958L-299,1087L-89,1152Z" fill="#e394bb" stroke="#e394bb" stroke-width="1.51"/><path d="M84,1592L-86,1696L155,1716Z" fill="#a57aab" stroke="#a57aab" stroke-width="1.51"/><path d="M-243,798L-299,1087L-223,958Z" fill="#f29ec4" stroke="#f29ec4" stroke-width="1.51"/><path d="M1130,-197L869,-298L913,6Z" fill="#ea99bf" stroke="#ea99bf" stroke-width="1.51"/><path d="M1953,1297L1969,757L1893,897Z" fill="#8d127e" stroke="#8d127e" stroke-width="1.51"/><path d="M1893,897L1969,757L1733,721Z" fill="#9d2f85" stroke="#9d2f85" stroke-width="1.51"/><path d="M1309,1793L1491,1794L1291,1565Z" fill="#54006d" stroke="#54006d" stroke-width="1.51"/><path d="M1383,1980L1491,1794L1309,1793Z" fill="#50006c" stroke="#50006c" stroke-width="1.51"/><path d="M-313,1346L-105,1552L-21,1370Z" fill="#b081b0" stroke="#b081b0" stroke-width="1.51"/><path d="M555,-216L323,-240L542,-91Z" fill="#ffd2d6" stroke="#ffd2d6" stroke-width="1.51"/><path d="M869,-298L667,-301L671,-1Z" fill="#ffb1c9" stroke="#ffb1c9" stroke-width="1.51"/><path d="M1729,99L1526,-81L1583,195Z" fill="#a479aa" stroke="#a479aa" stroke-width="1.51"/><path d="M1294,-98L1367,-250L1130,-197Z" fill="#bf86b4" stroke="#bf86b4" stroke-width="1.51"/><path d="M1130,-197L1367,-250L869,-298Z" fill="#d58db6" stroke="#d58db6" stroke-width="1.51"/><path d="M1729,99L1583,195L1726,329Z" fill="#a371a2" stroke="#a371a2" stroke-width="1.51"/><path d="M1863,294L1729,99L1726,329Z" fill="#a36e9f" stroke="#a36e9f" stroke-width="1.51"/><path d="M1859,92L1863,294L1940,-2Z" fill="#a475a6" stroke="#a475a6" stroke-width="1.51"/><path d="M1925,607L1863,294L1726,329Z" fill="#a36194" stroke="#a36194" stroke-width="1.51"/><path d="M-243,798L-323,534L-299,1087Z" fill="#fcadc8" stroke="#fcadc8" stroke-width="1.51"/><path d="M-133,322L-323,534L-115,598Z" fill="#ffd3d6" stroke="#ffd3d6" stroke-width="1.51"/><path d="M-318,295L-323,534L-133,322Z" fill="#feddd9" stroke="#feddd9" stroke-width="1.51"/><path d="M142,1983L305,1803L155,1716Z" fill="#a371a2" stroke="#a371a2" stroke-width="1.51"/><path d="M142,1983L335,1939L305,1803Z" fill="#a36c9d" stroke="#a36c9d" stroke-width="1.51"/><path d="M305,1803L335,1939L552,1939Z" fill="#a36194" stroke="#a36194" stroke-width="1.51"/><path d="M667,-301L323,-240L555,-216Z" fill="#feced5" stroke="#feced5" stroke-width="1.51"/><path d="M-252,143L-133,322L-44,162Z" fill="#feeae6" stroke="#feeae6" stroke-width="1.51"/><path d="M1865,1147L1953,1297L1893,897Z" fill="#7e0075" stroke="#7e0075" stroke-width="1.51"/><path d="M1859,1539L1953,1297L1772,1363Z" fill="#57006d" stroke="#57006d" stroke-width="1.51"/><path d="M1859,1539L1772,1363L1721,1494Z" fill="#4e006b" stroke="#4e006b" stroke-width="1.51"/><path d="M1549,-292L1367,-250L1526,-81Z" fill="#a57dad" stroke="#a57dad" stroke-width="1.51"/><path d="M1526,-81L1367,-250L1294,-98Z" fill="#ab7faf" stroke="#ab7faf" stroke-width="1.51"/><path d="M-299,1087L-313,1346L-89,1152Z" fill="#d18cb6" stroke="#d18cb6" stroke-width="1.51"/><path d="M-323,534L-313,1346L-299,1087Z" fill="#ed9bc1" stroke="#ed9bc1" stroke-width="1.51"/><path d="M-105,1552L-86,1696L84,1592Z" fill="#a57dad" stroke="#a57dad" stroke-width="1.51"/><path d="M-272,1612L-86,1696L-105,1552Z" fill="#a57dad" stroke="#a57dad" stroke-width="1.51"/><path d="M1762,1717L1859,1539L1721,1494Z" fill="#49006a" stroke="#49006a" stroke-width="1.51"/><path d="M1491,1794L1762,1717L1463,1494Z" fill="#49006a" stroke="#49006a" stroke-width="1.51"/><path d="M1153,1902L1383,1980L1309,1793Z" fill="#5f0070" stroke="#5f0070" stroke-width="1.51"/><path d="M918,1930L1383,1980L1153,1902Z" fill="#720073" stroke="#720073" stroke-width="1.51"/><path d="M552,1939L1383,1980L918,1930Z" fill="#8d117d" stroke="#8d117d" stroke-width="1.51"/><path d="M142,1983L1383,1980L552,1939Z" fill="#a03987" stroke="#a03987" stroke-width="1.51"/><path d="M-252,143L-44,162L-125,-30Z" fill="#fff1ed" stroke="#fff1ed" stroke-width="1.51"/><path d="M-252,143L-318,295L-133,322Z" fill="#fee7e3" stroke="#fee7e3" stroke-width="1.51"/><path d="M1778,1976L1762,1717L1491,1794Z" fill="#49006a" stroke="#49006a" stroke-width="1.51"/><path d="M-125,-30L-44,162L123,-10Z" fill="#fff4f0" stroke="#fff4f0" stroke-width="1.51"/><path d="M1729,99L1743,-102L1526,-81Z" fill="#a57dad" stroke="#a57dad" stroke-width="1.51"/><path d="M1863,294L1859,92L1729,99Z" fill="#a473a5" stroke="#a473a5" stroke-width="1.51"/><path d="M1940,-2L1863,294L1925,607Z" fill="#a36a9b" stroke="#a36a9b" stroke-width="1.51"/><path d="M66,-258L-125,-30L123,-10Z" fill="#fff5f1" stroke="#fff5f1" stroke-width="1.51"/><path d="M1383,1980L1504,1970L1491,1794Z" fill="#49006a" stroke="#49006a" stroke-width="1.51"/><path d="M-127,1926L142,1983L155,1716Z" fill="#a57aaa" stroke="#a57aaa" stroke-width="1.51"/><path d="M335,1939L142,1983L552,1939Z" fill="#a36697" stroke="#a36697" stroke-width="1.51"/><path d="M-86,1696L-127,1926L155,1716Z" fill="#a57dad" stroke="#a57dad" stroke-width="1.51"/><path d="M-313,1346L-272,1612L-105,1552Z" fill="#a57dad" stroke="#a57dad" stroke-width="1.51"/><path d="M1859,92L1743,-102L1729,99Z" fill="#a57bac" stroke="#a57bac" stroke-width="1.51"/><path d="M667,-301L66,-258L323,-240Z" fill="#fededa" stroke="#fededa" stroke-width="1.51"/><path d="M323,-240L66,-258L123,-10Z" fill="#feece8" stroke="#feece8" stroke-width="1.51"/><path d="M1707,-214L1549,-292L1526,-81Z" fill="#a57dad" stroke="#a57dad" stroke-width="1.51"/><path d="M1367,-250L1549,-292L869,-298Z" fill="#bf86b4" stroke="#bf86b4" stroke-width="1.51"/><path d="M869,-298L1549,-292L667,-301Z" fill="#e294bb" stroke="#e294bb" stroke-width="1.51"/><path d="M-272,1612L-217,1749L-86,1696Z" fill="#a57dad" stroke="#a57dad" stroke-width="1.51"/><path d="M1778,1976L1870,1739L1762,1717Z" fill="#49006a" stroke="#49006a" stroke-width="1.51"/><path d="M1762,1717L1870,1739L1859,1539Z" fill="#49006a" stroke="#49006a" stroke-width="1.51"/><path d="M1859,1539L1870,1739L1953,1297Z" fill="#49006a" stroke="#49006a" stroke-width="1.51"/><path d="M1743,-102L1707,-214L1526,-81Z" fill="#a57dad" stroke="#a57dad" stroke-width="1.51"/><path d="M1949,-201L1707,-214L1743,-102Z" fill="#a57dad" stroke="#a57dad" stroke-width="1.51"/><path d="M1859,92L1940,-2L1743,-102Z" fill="#a57dad" stroke="#a57dad" stroke-width="1.51"/><path d="M1969,757L1940,-2L1925,607Z" fill="#a25d93" stroke="#a25d93" stroke-width="1.51"/><path d="M-260,-241L-300,-15L-125,-30Z" fill="#fff7f3" stroke="#fff7f3" stroke-width="1.51"/><path d="M-125,-30L-300,-15L-252,143Z" fill="#fff5f1" stroke="#fff5f1" stroke-width="1.51"/><path d="M-252,143L-300,-15L-318,295Z" fill="#ffeeea" stroke="#ffeeea" stroke-width="1.51"/><path d="M-217,1749L-127,1926L-86,1696Z" fill="#a57dad" stroke="#a57dad" stroke-width="1.51"/><path d="M66,-258L-80,-263L-125,-30Z" fill="#fff7f3" stroke="#fff7f3" stroke-width="1.51"/><path d="M667,-301L-80,-263L66,-258Z" fill="#fee8e5" stroke="#fee8e5" stroke-width="1.51"/><path d="M1504,1970L1778,1976L1491,1794Z" fill="#49006a" stroke="#49006a" stroke-width="1.51"/><path d="M1383,1980L1778,1976L1504,1970Z" fill="#49006a" stroke="#49006a" stroke-width="1.51"/><path d="M-80,-263L-260,-241L-125,-30Z" fill="#fff7f3" stroke="#fff7f3" stroke-width="1.51"/><path d="M1778,1976L1901,1957L1870,1739Z" fill="#49006a" stroke="#49006a" stroke-width="1.51"/><path d="M1870,1739L1901,1957L1953,1297Z" fill="#49006a" stroke="#49006a" stroke-width="1.51"/><path d="M1940,-2L1949,-201L1743,-102Z" fill="#a57dad" stroke="#a57dad" stroke-width="1.51"/><path d="M1707,-214L1949,-201L1549,-292Z" fill="#a57dad" stroke="#a57dad" stroke-width="1.51"/><path d="M1969,757L1949,-201L1940,-2Z" fill="#a372a3" stroke="#a372a3" stroke-width="1.51"/><path d="M-217,1749L-299,2009L-127,1926Z" fill="#a57dad" stroke="#a57dad" stroke-width="1.51"/><path d="M-127,1926L-299,2009L142,1983Z" fill="#a57dad" stroke="#a57dad" stroke-width="1.51"/><path d="M142,1983L-299,2009L1383,1980Z" fill="#a36094" stroke="#a36094" stroke-width="1.51"/><path d="M1383,1980L-299,2009L1778,1976Z" fill="#8c107d" stroke="#8c107d" stroke-width="1.51"/><path d="M-272,1612L-299,2009L-217,1749Z" fill="#a57dad" stroke="#a57dad" stroke-width="1.51"/><path d="M-313,1346L-299,2009L-272,1612Z" fill="#a57dad" stroke="#a57dad" stroke-width="1.51"/></svg>